# xmcd
#
# Track frame offsets: 
#        150
#        16066
#        40820
#        52922
#        74871
#        90072
#        111140
#        125575
#        154641
#
# Disc length: 2302 seconds
#
# Revision: 2
# Processed by: cddbd v1.5.2PL0 Copyright (c) Steve Scherf et al.
# Submitted via: ExactAudioCopy v1.3
#
DISCID=6808fc09
DTITLE=Cyndi Lauper - She's So Unusual: A 30th Anniversary Celebration
DTITLE=(Japan Deluxe Edition)
DYEAR=2014
DGENRE=Pop
TTITLE0=Girls Just Want To Have Fun (Early Guitar Demo)
TTITLE1=All Through The Night (1983 Rehearsal, With Studio Dialog)
TTITLE2=Rules And Regulations (1983 Rehearsal)
TTITLE3=Money Changes Everything (Demo)
TTITLE4=Girls Just Want To Have Fun (Demo)
TTITLE5=Right Train, Wrong Track (Non LP B-Side)
TTITLE6=Witness (Live, Boston, 1984)
TTITLE7=She Bop (1984 Arthur Baker Remix)
TTITLE8=Time After Time (Work In Progress Rough Mix)
EXTD=
EXTT0=
EXTT1=
EXTT2=
EXTT3=
EXTT4=
EXTT5=
EXTT6=
EXTT7=
EXTT8=
PLAYORDER=
